<?xml version="1.0" standalone="no"?>
<!DOCTYPE svg PUBLIC "-//W3C//DTD SVG 20010904//EN"
 "http://www.w3.org/TR/2001/REC-SVG-20010904/DTD/svg10.dtd">
<svg version="1.0" xmlns="http://www.w3.org/2000/svg"
 width="621.000000pt" height="621.000000pt" viewBox="0 0 621.000000 621.000000"
 preserveAspectRatio="xMidYMid meet">
<metadata>
Created by potrace 1.11, written by Peter Selinger 2001-2013
</metadata>
<g transform="translate(0.000000,621.000000) scale(0.100000,-0.100000)"
fill="#000000" stroke="none">
<path d="M2600 6204 c-507 -59 -839 -183 -1133 -422 -160 -130 -308 -351 -294
-439 11 -63 40 -84 231 -158 496 -194 1096 -185 1626 23 230 91 501 278 530
367 16 48 -2 101 -44 126 -59 36 -91 24 -201 -71 -84 -72 -164 -123 -280 -180
-442 -214 -994 -250 -1465 -93 -111 37 -130 47 -130 69 0 27 203 221 293 279
416 269 1044 354 1577 214 160 -42 388 -138 458 -192 9 -7 -5 -27 -59 -81
-187 -185 -358 -467 -359 -594 0 -35 6 -49 29 -73 25 -24 38 -29 78 -29 64 0
78 16 135 145 85 195 221 367 388 491 115 86 133 127 87 195 -29 43 -162 132
-302 203 -191 96 -413 165 -645 201 -99 15 -444 28 -520 19z"/>
<path d="M2235 4724 c-477 -64 -896 -256 -1180 -539 -311 -310 -520 -685 -629
-1128 -53 -212 -69 -351 -70 -577 0 -377 65 -664 229 -995 324 -656 887 -1088
1610 -1234 343 -69 689 -66 964 9 92 25 256 102 341 160 192 130 363 361 466
628 32 85 60 112 116 112 30 0 46 -7 69 -29 40 -41 38 -81 -11 -205 -89 -221
-204 -391 -377 -556 l-107 -103 209 6 c156 4 236 11 309 26 281 58 537 172
766 342 104 77 281 252 382 379 359 451 521 916 521 1490 0 201 -11 319 -49
508 -122 611 -535 1193 -1072 1509 -228 134 -463 200 -752 210 -145 5 -365 -8
-411 -25 -15 -6 1 -20 74 -69 206 -137 379 -339 477 -557 84 -187 143 -484
110 -547 -16 -29 -68 -52 -105 -45 -56 11 -74 41 -91 157 -63 435 -291 743
-685 928 -162 75 -307 117 -510 146 -130 18 -456 18 -594 -1z"/>
</g>
</svg>
